<svg width="21" height="21" viewBox="0 0 21 21" fill="none" xmlns="http://www.w3.org/2000/svg">
    <path fill-rule="evenodd" clip-rule="evenodd"
        d="M10.4955 0.000999998C8.00583 0.00167989 5.59683 0.883798 3.69546 2.491C1.79918 4.09348 0.536838 6.31995 0.135463 8.77C-0.263537 11.216 0.225464 13.724 1.51546 15.845C2.80883 17.9691 4.81479 19.5647 7.17546 20.347C7.69746 20.444 7.89346 20.12 7.89346 19.845C7.89346 19.571 7.88346 18.774 7.87946 17.902C4.95946 18.533 4.34146 16.67 4.34146 16.67C3.86546 15.46 3.17646 15.141 3.17646 15.141C2.22346 14.495 3.24846 14.507 3.24846 14.507C4.30346 14.581 4.85846 15.584 4.85846 15.584C5.79346 17.18 7.31446 16.718 7.91346 16.448C8.00646 15.772 8.27946 15.313 8.58046 15.051C6.24646 14.789 3.79546 13.893 3.79546 9.893C3.78133 8.85412 4.16896 7.84993 4.87746 7.09C4.76946 6.828 4.40946 5.766 4.97946 4.324C4.97946 4.324 5.86146 4.044 7.86746 5.394C9.58889 4.92599 11.404 4.92599 13.1255 5.394C15.1305 4.044 16.0105 4.324 16.0105 4.324C16.5825 5.763 16.2225 6.824 16.1145 7.09C16.8248 7.85007 17.2129 8.8558 17.1975 9.896C17.1975 13.906 14.7405 14.789 12.4045 15.046C12.7795 15.371 13.1145 16.006 13.1145 16.981C13.1145 18.378 13.1035 19.501 13.1035 19.845C13.1035 20.124 13.2935 20.449 13.8245 20.347C16.1857 19.5647 18.192 17.9687 19.4855 15.844C20.7744 13.7253 21.2632 11.2155 20.8635 8.768C20.4619 6.31828 19.1996 4.09217 17.3035 2.49C15.4014 0.882056 12.9911 -0.000115502 10.5005 1.13427e-08L10.4955 0.000999998Z"
        fill="#2F2F2F" />
    <path
        d="M3.9717 14.991C3.9497 15.043 3.8657 15.058 3.7987 15.022C3.7307 14.986 3.6797 14.918 3.7047 14.865C3.7287 14.811 3.8107 14.797 3.8777 14.834C3.9457 14.87 3.9977 14.939 3.9717 14.991ZM4.3977 15.463C4.36179 15.4808 4.32084 15.4858 4.2817 15.4771C4.24256 15.4683 4.20761 15.4464 4.1827 15.415C4.1147 15.342 4.1007 15.242 4.1527 15.197C4.2047 15.152 4.2987 15.173 4.3667 15.245C4.4347 15.318 4.4507 15.418 4.3977 15.463ZM4.8117 16.063C4.7477 16.108 4.6377 16.063 4.5767 15.973C4.55167 15.9486 4.53457 15.9172 4.52761 15.883C4.52065 15.8488 4.52417 15.8132 4.5377 15.781C4.54706 15.7595 4.56066 15.7401 4.5777 15.724C4.6417 15.681 4.7507 15.724 4.8117 15.812C4.8727 15.9 4.8747 16.019 4.8117 16.063ZM5.3737 16.643C5.3157 16.708 5.1997 16.69 5.1037 16.604C5.0087 16.517 4.9857 16.4 5.0437 16.338C5.1007 16.275 5.2167 16.293 5.3157 16.378C5.4157 16.462 5.4347 16.58 5.3737 16.643ZM6.1607 16.983C6.1347 17.063 6.0167 17.1 5.8987 17.066C5.7807 17.031 5.7017 16.934 5.7247 16.851C5.7477 16.768 5.8677 16.731 5.9877 16.768C6.1077 16.806 6.1837 16.898 6.1607 16.983ZM7.0197 17.041C7.0197 17.126 6.9227 17.199 6.7977 17.201C6.6727 17.202 6.5697 17.133 6.5697 17.048C6.5697 16.964 6.6667 16.891 6.7927 16.889C6.9177 16.887 7.0197 16.955 7.0197 17.041ZM7.8197 16.908C7.8357 16.993 7.7487 17.081 7.6237 17.102C7.4987 17.122 7.3887 17.072 7.3737 16.989C7.3577 16.907 7.4477 16.817 7.5697 16.794C7.6907 16.772 7.8047 16.824 7.8197 16.908Z"
        fill="white" />
</svg>